<svg width="82" height="90" viewBox="0 0 82 90" fill="none" xmlns="http://www.w3.org/2000/svg">
<path d="M25.8053 1.11504C17.9203 2.62832 11.7876 4.53982 5.33627 7.32743L-0.159302 9.8761L0.159282 33.3717C0.477866 52.885 0.79645 57.6637 1.91149 61.3274C7.40707 78.531 23.0973 90 41.0177 90C59.0973 90 74.9469 77.9735 79.9646 60.4513C81.0796 56.7876 81.2389 52.2478 81.0796 32.5752L80.8407 9.15928L74.3097 6.53097C62.6018 1.9115 56.5487 0.637162 43.4071 0.318578C35.5221 0.159286 29.5487 0.398226 25.8053 1.11504ZM33.0531 15.292C30.2655 24.531 23.177 32.2566 15.3717 34.646C13.5398 35.1239 13.5398 35.1239 13.5398 26.8407V18.5575L19.354 16.8053C24.1327 15.3717 30.0265 14.0177 32.8938 13.6195C33.292 13.5398 33.292 14.3363 33.0531 15.292ZM54.4779 14.7345C56.1504 14.9734 59.8141 15.9292 62.6018 16.8053L67.6991 18.3982V26.7611C67.6991 35.1239 67.6991 35.1239 65.9469 34.5664C59.3363 32.5752 53.0442 26.7611 49.8584 19.9115C47.3097 14.4159 47.2301 13.3805 49.6195 13.8584C50.5752 14.0973 52.7257 14.4956 54.4779 14.7345ZM48.823 44.8407C46.0354 47.0708 44.6814 48.4248 42.531 51.2124L40.7787 53.3628L35.3628 47.8673L29.8672 42.4513L33.1327 39.9027C34.9646 38.5487 37.2743 36.1593 38.2301 34.7257L40.0619 32.177L45.5575 37.6726L51.0531 43.0885L48.823 44.8407ZM22.6195 54.7965C28.5133 58.8584 34.0885 68.9734 33.292 74.0708C33.0531 75.6637 32.9734 75.6637 28.9115 73.6726C21.6637 70.0088 15.292 61.1681 14.0973 53.2035L13.6195 50.177L16.5664 51.4513C18.1593 52.0885 20.9469 53.6018 22.6195 54.7965ZM66.9026 56.469C65.708 61.2478 61.3274 67.9381 57.4248 70.7257C54.0796 73.1947 47.9469 76.1416 47.3894 75.5841C47.2301 75.3451 47.5487 73.1947 48.1062 70.7257C50.0973 62.2035 55.2743 55.7522 63.2389 52.0885C68.0177 49.8584 68.4159 50.4159 66.9026 56.469Z" fill="black"/>
</svg>
